<svg width="16" height="14" viewBox="0 0 16 14" fill="none" xmlns="http://www.w3.org/2000/svg">
<g clip-path="url(#clip0_2916_6594)">
<path d="M9.05078 6.99999L10.6104 8.78265L12.7075 10.1228L13.0732 7.01096L12.7075 3.96857L10.5702 5.14603L9.05078 6.99999Z" fill="#00832D"/>
<path d="M0 9.83397V12.4851C0 13.0912 0.490915 13.5821 1.09702 13.5821H3.74814L4.29665 11.5782L3.74814 9.83397L1.92892 9.28546L0 9.83397Z" fill="#0066DA"/>
<path d="M3.74814 0.41803L0 4.16617L1.92892 4.71468L3.74814 4.16617L4.28751 2.44568L3.74814 0.41803Z" fill="#E94235"/>
<path d="M3.74814 4.16602H0V9.83394H3.74814V4.16602Z" fill="#2684FC"/>
<path d="M15.1022 2.00494L12.707 3.9686V10.1229L15.1131 12.0957C15.4733 12.3772 15.9999 12.1204 15.9999 11.6624V2.42912C15.9999 1.96563 15.4615 1.71149 15.1022 2.00494ZM9.0503 7.00003V9.83399H3.74805V13.5821H11.61C12.2161 13.5821 12.707 13.0912 12.707 12.4851V10.1229L9.0503 7.00003Z" fill="#00AC47"/>
<path d="M11.61 0.417908H3.74805V4.16605H9.0503V7.00001L12.707 3.97042V1.51493C12.707 0.908823 12.2161 0.417908 11.61 0.417908Z" fill="#FFBA00"/>
</g>
<defs>
<clipPath id="clip0_2916_6594">
<rect width="16" height="13.1648" fill="white" transform="translate(0 0.417603)"/>
</clipPath>
</defs>
</svg>
